<?xml version="1.0" standalone="no"?>
<!DOCTYPE svg PUBLIC "-//W3C//DTD SVG 20010904//EN"
 "http://www.w3.org/TR/2001/REC-SVG-20010904/DTD/svg10.dtd">
<svg version="1.0" xmlns="http://www.w3.org/2000/svg"
 width="809.000000pt" height="525.000000pt" viewBox="0 0 809.000000 525.000000"
 preserveAspectRatio="xMidYMid meet">

<g transform="translate(0.000000,525.000000) scale(0.100000,-0.100000)"
fill="#FFFFFF" stroke="none">
 <!-- White background with rounded corners -->
  <!-- <rect width="20000" height="8000" fill="#FFFFFF" /> -->
  <!-- Black logo -->
  <path fill="#000000" d="M50 0 L100 100 H0 Z" />
<path d="M4289 4505 l-396 -123 -174 -179 c-96 -98 -215 -220 -264 -271 l-90
-92 -195 -24 -195 -24 455 5 455 5 377 383 c331 336 439 448 426 444 -1 -1
-181 -57 -399 -124z"/> 
<path d="M4702 4538 l-41 -43 315 -305 315 -305 -5 -77 c-5 -88 -11 -105 -33
-87 -12 10 -22 4 -61 -34 l-47 -47 125 -123 c69 -67 222 -218 342 -334 l216
-212 -17 -176 c-17 -176 -17 -176 4 -180 87 -20 568 -115 571 -113 1 2 -115
34 -259 71 -144 38 -265 71 -268 75 -4 4 1 57 10 117 l17 110 94 5 95 5 -373
380 -373 380 6 50 c12 99 6 94 103 97 l86 3 -382 390 c-210 215 -386 391 -390
393 -4 1 -26 -17 -50 -40z"/>
<path d="M5119 4407 c-22 -8 -28 -18 -32 -56 -5 -45 -4 -47 63 -121 38 -41 87
-93 109 -115 l41 -39 2 92 c1 51 2 115 3 143 l0 51 -68 29 c-75 31 -79 32
-118 16z"/>
<path d="M4510 4020 l0 -50 50 0 50 0 0 50 0 50 -50 0 -50 0 0 -50z"/>
<path d="M4680 4020 l0 -50 50 0 50 0 0 50 0 50 -50 0 -50 0 0 -50z"/>
<path d="M4510 3860 l0 -50 50 0 50 0 0 50 0 50 -50 0 -50 0 0 -50z"/>
<path d="M4680 3860 l0 -50 50 0 50 0 0 50 0 50 -50 0 -50 0 0 -50z"/>
<path d="M3020 3573 c113 -115 302 -306 419 -425 173 -174 211 -218 197 -224
-9 -4 -81 -14 -159 -23 l-142 -16 665 0 665 0 -149 18 c-82 9 -152 19 -154 22
-5 5 292 317 468 490 61 61 165 167 231 237 l120 126 -58 -17 c-32 -10 -224
-69 -428 -131 l-370 -112 -155 -160 c-85 -87 -159 -159 -165 -158 -5 0 -82 72
-170 159 l-160 159 -395 121 c-217 66 -403 125 -412 131 -10 5 -26 10 -35 10
-11 0 62 -81 187 -207z"/>
<path d="M2343 3307 l-412 -422 95 -3 c51 -1 94 -4 95 -5 0 -1 8 -53 18 -115
l18 -114 -21 -7 c-12 -4 -123 -34 -248 -66 -125 -32 -226 -61 -224 -63 6 -5
522 99 537 109 9 5 8 48 -5 181 l-16 173 117 115 c65 63 219 214 341 334 l224
218 -43 44 c-24 24 -48 44 -54 43 -5 0 -195 -191 -422 -422z"/>
<path d="M2246 3526 l-76 -31 0 -155 0 -155 121 121 120 120 -7 51 c-6 47 -9
52 -44 66 -35 14 -41 13 -114 -17z"/>
<path d="M5650 3544 c-43 -18 -50 -29 -50 -79 0 -38 6 -47 113 -153 62 -62
116 -110 120 -106 4 4 7 70 7 146 l0 139 -57 26 c-95 41 -97 42 -133 27z"/>
<path d="M2730 3125 l0 -55 55 0 55 0 0 55 0 55 -55 0 -55 0 0 -55z"/>
<path d="M2910 3125 l0 -55 55 0 55 0 0 55 0 55 -55 0 -55 0 0 -55z"/>
<path d="M4990 3125 l0 -55 50 0 50 0 0 55 0 55 -50 0 -50 0 0 -55z"/>
<path d="M5170 3125 l0 -55 55 0 55 0 0 55 0 55 -55 0 -55 0 0 -55z"/>
<path d="M2730 2955 l0 -55 55 0 55 0 0 55 0 55 -55 0 -55 0 0 -55z"/>
<path d="M2910 2955 l0 -55 55 0 55 0 0 55 0 55 -55 0 -55 0 0 -55z"/>
<path d="M4990 2955 l0 -55 50 0 50 0 0 55 0 55 -50 0 -50 0 0 -55z"/>
<path d="M5170 2955 l0 -55 55 0 55 0 0 55 0 55 -55 0 -55 0 0 -55z"/>
<path d="M3585 2669 c-852 -27 -1652 -147 -2214 -331 -147 -48 -325 -117 -319
-123 2 -2 62 14 133 36 449 135 1117 243 1820 294 1410 101 2956 -23 3885
-314 35 -11 66 -19 68 -17 2 2 -54 26 -125 54 -588 230 -1426 367 -2448 402
-327 11 -451 11 -800 -1z"/>
<path d="M1628 2503 c7 -3 16 -2 19 1 4 3 -2 6 -13 5 -11 0 -14 -3 -6 -6z"/>
<path d="M6408 2493 c7 -3 16 -2 19 1 4 3 -2 6 -13 5 -11 0 -14 -3 -6 -6z"/>
<path d="M1335 1790 c-82 -3 -142 -8 -132 -12 16 -7 17 -29 17 -267 0 -258 0
-260 -22 -276 -21 -14 -10 -15 147 -13 l170 3 3 38 3 37 -25 -25 c-21 -21 -34
-25 -86 -25 -92 0 -100 12 -100 150 l0 110 68 0 c68 0 94 -10 105 -40 3 -8 6
9 6 38 1 50 0 52 -19 42 -11 -6 -51 -10 -88 -8 l-67 3 -3 108 -3 107 73 0 c81
0 93 -5 106 -40 8 -22 10 -18 13 28 3 31 0 51 -6 50 -5 -1 -77 -5 -160 -8z"/>
<path d="M2053 1763 c-8 -21 -55 -136 -104 -257 -97 -240 -109 -263 -142 -276
-16 -6 -1 -9 51 -9 67 -1 72 0 58 15 -20 19 -21 11 15 104 l30 80 89 0 c58 0
91 -4 98 -12 6 -7 24 -47 40 -88 21 -53 27 -79 20 -87 -8 -10 8 -13 78 -12 72
0 84 3 61 11 -33 12 -60 67 -178 361 -46 114 -87 207 -92 207 -4 0 -15 -17
-24 -37z m45 -205 c18 -51 32 -96 32 -100 0 -11 -150 -10 -150 1 0 7 19 59 59
164 6 15 14 27 19 27 4 0 22 -42 40 -92z"/>
<path d="M3762 1793 c-132 -3 -143 -5 -130 -20 10 -13 13 -71 13 -265 l0 -250
-24 -19 c-24 -19 -23 -19 145 -17 l169 3 3 38 3 37 -25 -25 c-21 -21 -34 -25
-86 -25 -92 0 -100 12 -100 150 0 81 3 110 13 111 31 2 114 -3 130 -7 10 -3
22 -15 27 -27 7 -17 9 -9 9 31 1 50 0 52 -19 42 -11 -6 -51 -10 -88 -8 l-67 3
-3 108 -3 107 74 0 c77 0 102 -10 110 -45 3 -11 5 -4 6 17 0 20 4 43 7 52 4
10 1 15 -7 14 -8 -1 -79 -4 -157 -5z"/>
<path d="M4404 1786 c-64 -28 -93 -94 -74 -168 12 -43 29 -62 162 -186 52 -47
66 -88 48 -133 -16 -37 -56 -59 -109 -59 -50 0 -86 29 -106 85 l-14 40 -1 -67
0 -67 43 -12 c59 -16 149 -6 193 22 40 24 74 86 74 134 0 51 -35 109 -96 161
-104 88 -134 122 -134 154 0 42 9 59 41 75 58 30 130 8 154 -48 l14 -32 1 51
c0 38 -4 53 -16 58 -28 11 -148 5 -180 -8z"/>
<path d="M4940 1784 c0 -6 -3 -27 -7 -45 l-6 -34 21 25 c18 23 28 25 111 28
l91 4 0 -229 c0 -235 -8 -298 -38 -306 -9 -3 28 -5 83 -6 86 -1 97 1 75 12
-13 7 -27 23 -31 37 -4 14 -7 130 -8 258 l-1 232 70 0 c76 0 125 -18 133 -47
3 -10 5 5 6 32 l1 50 -250 0 c-179 0 -250 -3 -250 -11z"/>
<path d="M5935 1768 c-7 -18 -54 -134 -104 -258 -100 -244 -111 -267 -144
-280 -16 -6 -1 -9 51 -9 66 -1 72 1 58 14 -16 17 -10 48 29 143 l17 43 95 -3
95 -3 33 -85 c23 -59 30 -89 23 -97 -8 -10 9 -13 78 -12 69 0 83 3 63 10 -35
13 -57 57 -170 337 -51 127 -97 232 -102 232 -4 0 -14 -15 -22 -32z m43 -207
c18 -48 32 -93 32 -100 0 -7 -26 -11 -75 -11 -41 0 -75 4 -75 9 0 7 19 59 59
164 6 15 14 27 19 27 4 0 22 -40 40 -89z"/>
<path d="M6495 1790 c-1 -3 -6 -23 -10 -45 l-7 -39 20 24 c18 23 29 25 111 28
l91 4 0 -230 c0 -258 -4 -290 -34 -302 -14 -6 14 -9 79 -9 86 -1 97 1 75 12
-35 18 -41 61 -38 306 l3 216 64 3 c73 3 119 -11 131 -42 7 -16 9 -8 9 29 l1
50 -246 0 c-135 0 -247 -2 -249 -5z"/>
<path d="M7492 1793 c-132 -3 -143 -5 -130 -20 10 -13 13 -71 13 -265 l0 -250
-24 -19 c-24 -19 -23 -19 145 -17 l169 3 3 38 3 37 -25 -25 c-21 -21 -34 -25
-86 -25 -92 0 -100 12 -100 150 0 81 3 110 13 111 31 2 114 -3 130 -7 10 -3
22 -15 27 -27 7 -17 9 -9 9 31 1 50 0 52 -19 42 -11 -6 -51 -10 -88 -8 l-67 3
-3 108 -3 107 74 0 c77 0 102 -10 110 -45 3 -11 5 -4 6 17 0 20 4 43 7 52 4
10 1 15 -7 14 -8 -1 -79 -4 -157 -5z"/>
<path d="M394 1774 c14 -13 16 -50 16 -254 0 -131 -4 -250 -9 -264 -6 -13 -18
-26 -28 -29 -10 -3 27 -5 82 -4 55 0 90 2 77 4 -32 6 -42 40 -42 144 l0 89 45
0 44 0 73 -97 c94 -124 110 -136 196 -141 l67 -3 -40 19 c-22 11 -52 32 -66
48 -43 47 -159 195 -159 203 0 4 14 20 31 37 35 33 68 97 69 132 0 46 -31 94
-74 113 -33 15 -66 19 -169 19 -117 0 -127 -1 -113 -16z m227 -40 c56 -53 62
-156 12 -215 -24 -28 -30 -30 -82 -27 l-56 3 -3 124 c-1 69 0 131 3 139 9 25
91 9 126 -24z"/>
<path d="M2701 1773 c11 -13 14 -69 14 -265 l0 -250 -24 -19 c-23 -19 -22 -19
152 -19 190 0 188 -1 186 58 0 15 -3 21 -6 14 -17 -42 -151 -58 -194 -23 -24
19 -24 21 -27 250 -2 152 1 237 8 251 10 19 8 20 -56 20 -61 0 -65 -1 -53 -17z"/>
<path d="M1905 831 c26 -37 35 -58 35 -90 0 -30 4 -41 15 -41 11 0 15 11 15
43 0 31 9 57 30 90 16 26 26 47 22 47 -4 0 -20 -22 -35 -47 l-29 -47 -26 47
c-16 28 -34 47 -44 47 -15 0 -11 -9 17 -49z"/>
<path d="M2183 856 c-57 -49 -24 -150 52 -159 17 -3 23 -2 14 0 -28 7 -60 49
-66 87 -4 29 -1 44 16 67 26 35 21 37 -16 5z"/>
<path d="M2305 855 c30 -29 34 -97 9 -134 -16 -22 -16 -23 4 -12 30 16 42 43
42 90 0 31 -6 44 -26 60 -38 30 -59 27 -29 -4z"/>
<path d="M2510 811 c0 -81 16 -108 70 -116 34 -5 34 -5 6 5 -41 13 -46 25 -46
108 0 57 -3 72 -15 72 -12 0 -15 -14 -15 -69z"/>
<path d="M2650 806 c0 -57 -4 -79 -17 -92 -13 -13 -14 -16 -3 -12 8 2 21 15
27 29 15 29 17 149 3 149 -6 0 -10 -31 -10 -74z"/>
<path d="M2840 790 c0 -73 3 -90 15 -90 12 0 15 17 15 90 0 73 -3 90 -15 90
-12 0 -15 -17 -15 -90z"/>
<path d="M2921 859 c13 -13 19 -29 16 -40 -4 -17 -3 -18 9 -8 20 16 17 46 -5
59 -32 17 -42 11 -20 -11z"/>
<path d="M3230 866 c-20 -25 -7 -60 33 -86 32 -20 38 -29 35 -52 -4 -22 -2
-25 9 -17 7 7 13 24 13 39 0 21 -10 34 -41 54 -33 22 -40 32 -36 52 5 28 4 29
-13 10z"/>
<path d="M3305 870 c3 -5 8 -10 11 -10 2 0 4 5 4 10 0 6 -5 10 -11 10 -5 0 -7
-4 -4 -10z"/>
<path d="M3485 790 c0 -88 1 -90 24 -90 19 0 21 3 11 14 -7 10 -10 42 -8 91 2
61 0 75 -12 75 -12 0 -15 -17 -15 -90z"/>
<path d="M3745 855 c-53 -53 -20 -149 55 -160 25 -3 28 -3 11 3 -57 18 -85
119 -45 163 25 28 7 23 -21 -6z"/>
<path d="M3867 856 c23 -20 28 -32 28 -69 0 -31 -6 -52 -20 -67 l-20 -23 23
12 c30 16 54 73 46 106 -7 27 -48 65 -71 65 -8 0 -3 -10 14 -24z"/>
<path d="M4085 855 c-19 -18 -25 -35 -25 -65 0 -44 34 -90 66 -90 13 0 11 5
-10 26 -33 34 -37 103 -6 134 11 11 15 20 10 20 -6 0 -22 -11 -35 -25z"/>
<path d="M4210 870 c19 -13 30 -13 30 0 0 6 -10 10 -22 10 -19 0 -20 -2 -8
-10z"/>
<path d="M4438 838 c-10 -23 -16 -43 -14 -45 2 -3 7 5 11 16 3 12 11 21 16 21
12 0 31 -49 23 -61 -3 -5 -1 -9 4 -9 5 0 15 -13 22 -30 7 -16 19 -30 27 -30 8
0 13 4 11 8 -45 108 -74 172 -78 172 -3 0 -13 -19 -22 -42z"/>
<path d="M4690 792 c0 -50 3 -92 8 -92 4 0 5 29 4 65 -2 36 0 65 5 65 5 0 37
-29 73 -65 44 -45 66 -61 72 -52 10 15 10 167 1 167 -5 0 -6 -29 -5 -65 3 -49
0 -65 -9 -65 -8 0 -44 30 -81 67 l-68 67 0 -92z"/>
<path d="M5130 790 c0 -73 3 -90 15 -90 11 0 15 12 15 45 l0 45 55 0 55 0 0
-45 c0 -33 4 -45 15 -45 12 0 15 17 15 90 0 73 -3 90 -15 90 -11 0 -15 -11
-15 -40 l0 -40 -55 0 -55 0 0 40 c0 29 -4 40 -15 40 -12 0 -15 -17 -15 -90z"/>
<path d="M5485 790 c0 -74 3 -90 15 -90 12 0 14 10 12 44 l-4 45 39 4 38 4
-37 1 c-36 2 -38 4 -38 36 0 19 6 37 13 39 6 3 1 6 -13 6 -25 1 -25 1 -25 -89z"/>
<path d="M5750 790 c0 -66 3 -90 13 -90 9 0 12 24 12 90 0 65 -3 90 -12 90
-10 0 -13 -25 -13 -90z"/>
<path d="M5823 869 c23 -13 23 -65 -1 -80 -17 -11 -16 -14 16 -50 20 -22 42
-39 50 -39 9 0 1 15 -22 40 l-37 41 21 26 c11 14 20 29 20 34 0 14 -31 39 -48
39 -15 -1 -15 -2 1 -11z"/>
<path d="M6050 790 c0 -82 2 -90 19 -90 17 0 18 3 8 29 -15 40 -4 61 35 62
l33 2 -35 6 c-27 5 -36 12 -38 29 -2 13 2 30 8 38 10 11 9 14 -9 14 -20 0 -21
-5 -21 -90z"/>
<path d="M2912 783 c-17 -6 44 -83 66 -83 12 0 10 6 -10 28 -14 15 -29 34 -34
43 -5 9 -15 14 -22 12z"/>
<path d="M4210 740 c0 -29 4 -40 15 -40 11 0 15 11 15 40 0 29 -4 40 -15 40
-11 0 -15 -11 -15 -40z"/>
<path d="M4397 744 c-20 -41 -20 -44 -7 -44 6 0 10 9 10 19 0 11 7 26 15 35 8
8 11 17 7 20 -5 3 -16 -11 -25 -30z"/>
<path d="M3210 712 c0 -13 43 -26 62 -19 7 3 2 6 -12 6 -15 1 -31 6 -38 13 -9
9 -12 9 -12 0z"/>
<path d="M4163 693 c9 -2 23 -2 30 0 6 3 -1 5 -18 5 -16 0 -22 -2 -12 -5z"/>
</g>
</svg>
